<svg width="38" height="52" viewBox="0 0 38 52" fill="none" xmlns="http://www.w3.org/2000/svg">
<path fill-rule="evenodd" clip-rule="evenodd" d="M20 50H18C7.88376 50 0 41.0411 0 30.4V2H2C9.87657 2 16.3997 7.43111 18.9021 14.8587C19.4596 14.3116 20.237 13.9799 21.1233 14.0345C30.5421 14.6155 38 22.4361 38 32C38 41.9412 29.9412 50 20 50Z" fill="white"/>
<path d="M21.0002 16.0306C20.449 15.9966 20 16.4476 20 16.9999V47.9999C28.8366 47.9999 36 40.8365 36 31.9999C36 23.4993 29.3708 16.5469 21.0002 16.0306Z" fill="#41B883"/>
<path d="M18 21.6V48C9.16344 48 2 40.1202 2 30.4V4C10.8366 4 18 11.8798 18 21.6Z" fill="#41B883"/>
</svg>
